<svg xmlns="http://www.w3.org/2000/svg" fill="none" viewBox="0 0 86 64"><path fill="#3172B9" d="M79.62 20.27c0 2.07-.3 4.08-.9 6h5.15a2.13 2.13 0 0 1 0 4.27h-6.4c-.2 0-.4-.03-.58-.08a20.38 20.38 0 0 1-3.2 4.15L44.97 63.37a2.13 2.13 0 0 1-3.02 0L13.23 34.61a20.26 20.26 0 0 1-2.74-3.42c-.18.04-.35.06-.54.06H2.13a2.13 2.13 0 0 1 0-4.27h6.32A20.32 20.32 0 0 1 19.79 1.53 20.09 20.09 0 0 1 27.54 0c5.41 0 10.5 2.1 14.32 5.94l1.6 1.6 1.61-1.6A20.09 20.09 0 0 1 59.38 0 20.09 20.09 0 0 1 73.7 5.94a20.16 20.16 0 0 1 5.93 14.33ZM70.68 8.96a15.86 15.86 0 0 0-11.3-4.69 15.86 15.86 0 0 0-11.3 4.69l-3.11 3.12a2.13 2.13 0 0 1-3.02 0l-3.11-3.12a15.86 15.86 0 0 0-11.3-4.69 15.86 15.86 0 0 0-11.3 4.69 16.05 16.05 0 0 0-2.81 18.8h14.8l5.3-11.28a1.42 1.42 0 0 1 2.62.12l7.9 21.89 6.5-18.32a1.42 1.42 0 0 1 2.63-.11l3.17 7h17.5a16.05 16.05 0 0 0-3.17-18.1ZM16.25 31.59l27.21 27.25L70.68 31.6c.55-.55 1.05-1.14 1.51-1.76H55.74c-.56 0-1.37-.26-1.6-.77l-2.1-4.62L45.4 43.2c-.2.57-.73.95-1.33.95-.6 0-1.14-.38-1.34-.94l-8.08-22.4-4.22 9c-.24.5-.44.74-1 .74H15.3c.3.36.62.7.96 1.05Z"/></svg>