<svg xmlns="http://www.w3.org/2000/svg" fill="none" viewBox="0 0 68 66"><path fill="#3172B9" d="M50.4 0a18.06 18.06 0 0 0-18.5 17.51l-.12 4.97A2.47 2.47 0 0 0 34.2 25a2.5 2.5 0 0 0 2.55-2.4l.12-4.98a13.1 13.1 0 0 1 13.4-12.69A13 13 0 0 1 63.02 18.2a13.1 13.1 0 0 1-13.4 12.68L18.5 30.2A18.06 18.06 0 0 0 0 47.7 17.92 17.92 0 0 0 17.6 66a18.06 18.06 0 0 0 18.5-17.51l.12-4.92a2.47 2.47 0 0 0-2.42-2.52 2.5 2.5 0 0 0-2.55 2.41l-.12 4.92a13.1 13.1 0 0 1-13.4 12.69A13 13 0 0 1 4.98 47.8a13.1 13.1 0 0 1 13.4-12.68l31.12.67A18.06 18.06 0 0 0 68 18.3 17.92 17.92 0 0 0 50.4 0Z"/></svg>