<svg xmlns="http://www.w3.org/2000/svg" fill="none" viewBox="0 0 65 65"><path fill="#3172B9" d="M63.13 51.5a6.4 6.4 0 0 1 0 9.04l-2.59 2.59a6.35 6.35 0 0 1-6.96 1.39 6.34 6.34 0 0 1-2.07-1.39L30.99 42.61l-2.86 2.87a6.34 6.34 0 0 1-1.85 5.02l-2.73 2.73a6.34 6.34 0 0 1-6.96 1.38 6.34 6.34 0 0 1-2.07-1.38L1.87 40.58a6.4 6.4 0 0 1 0-9.03l2.72-2.73a6.35 6.35 0 0 1 5.03-1.85L26.97 9.62a6.37 6.37 0 0 1 1.85-5.02l2.72-2.73a6.35 6.35 0 0 1 9.03 0l12.66 12.65a6.4 6.4 0 0 1 0 9.03l-2.73 2.73a6.35 6.35 0 0 1-5.02 1.85l-2.87 2.86 20.52 20.52ZM31.16 35.79l4.62-4.62 3.46-3.46 5.16-5.15.4.4a1.67 1.67 0 0 0 2.38 0l2.72-2.72a1.68 1.68 0 0 0 0-2.38L37.25 5.2a1.68 1.68 0 0 0-2.38 0l-2.73 2.72a1.68 1.68 0 0 0 0 2.38l.4.4L10.7 32.55l-.4-.4a1.67 1.67 0 0 0-2.37 0L5.2 34.87a1.68 1.68 0 0 0 0 2.38L17.85 49.9a1.67 1.67 0 0 0 2.37 0l2.73-2.73a1.68 1.68 0 0 0 0-2.37l-.4-.4 5.15-5.16 3.46-3.46ZM59.8 54.83 39.28 34.32l-4.97 4.97L54.83 59.8a1.67 1.67 0 0 0 2.38 0l2.6-2.59a1.68 1.68 0 0 0 0-2.38Z"/></svg>