<svg xmlns="http://www.w3.org/2000/svg" fill="none" viewBox="0 0 115 44"><path fill="#3172B9" d="M0 25.44V.33h3.22v21.84h8.92v3.27H0ZM21 .33v25.1h-3.22V.34h3.23Zm28 3.43a12.43 12.43 0 0 1 3.74 9.1c0 3.54-1.24 6.57-3.74 9.08a12.25 12.25 0 0 1-9.02 3.76c-3.52 0-6.53-1.25-9.02-3.76a12.43 12.43 0 0 1-3.74-9.09c0-3.55 1.25-6.58 3.74-9.09 2.5-2.5 5.5-3.76 9.02-3.76C43.5 0 46.51 1.25 49 3.76Zm-9.02-.48c-2.63 0-4.87.93-6.72 2.8a9.26 9.26 0 0 0-2.78 6.77c0 2.65.93 4.9 2.79 6.78a9.12 9.12 0 0 0 6.71 2.81c2.63 0 4.87-.94 6.73-2.8a9.29 9.29 0 0 0 2.78-6.79c0-2.65-.93-4.9-2.79-6.77a9.13 9.13 0 0 0-6.72-2.8ZM58.64.33h2.95l10.28 17.92V.33h3.24v25.1H72.3L61.86 7.3v18.14h-3.22V.33Zm26.28 0v25.1h-3.23V.34h3.23Zm25.89 19.13 2.41 2.18c-2.95 2.71-6.07 4.07-9.36 4.07-3.52 0-6.53-1.25-9-3.75a12.4 12.4 0 0 1-3.73-9.08c0-3.53 1.24-6.56 3.72-9.07a12.2 12.2 0 0 1 9-3.77c3.3 0 6.42 1.36 9.37 4.07l-2.41 2.21c-2.23-1.99-4.54-2.98-6.95-2.98a9.1 9.1 0 0 0-6.7 2.8 9.21 9.21 0 0 0-2.78 6.74c0 2.65.93 4.9 2.79 6.77a9.1 9.1 0 0 0 6.69 2.8c2.4 0 4.72-1 6.95-3Zm-57.83 21.4h3.34v.68h-4.07V34.3h.73v6.55Zm4.56-1.53c.02.24.08.47.17.68.18.4.5.73.91.9.2.1.43.14.66.14.36 0 .67-.09.93-.25.26-.17.46-.36.6-.58l.5.43c-.28.36-.59.62-.93.77a2.61 2.61 0 0 1-2.08.05 2.29 2.29 0 0 1-1.28-1.32 2.68 2.68 0 0 1 0-2 2.41 2.41 0 0 1 1.26-1.32c.29-.13.6-.2.94-.2.36 0 .68.07.96.2a2.14 2.14 0 0 1 1.16 1.27c.1.3.15.6.15.93v.3h-3.95Zm3.22-.55c0-.45-.13-.82-.4-1.1a1.5 1.5 0 0 0-1.14-.43 1.78 1.78 0 0 0-1.53.96c-.08.18-.13.37-.13.57h3.2Zm2.31 3.72a2.28 2.28 0 0 0 1.81.88c.34 0 .63-.05.87-.15a1.5 1.5 0 0 0 .89-1c.06-.23.1-.47.1-.73v-.86h-.03c-.21.33-.48.56-.79.7a2.54 2.54 0 0 1-2.74-.48 2.43 2.43 0 0 1-.72-1.74 2.55 2.55 0 0 1 .69-1.77 2.29 2.29 0 0 1 1.73-.71c.14 0 .29.01.45.04a2.11 2.11 0 0 1 1.38.88h.02v-.8h.67v4.74c0 .26-.03.53-.1.82a2.06 2.06 0 0 1-1.15 1.42c-.33.17-.76.25-1.3.25a2.93 2.93 0 0 1-2.28-.96l.5-.53Zm.12-3.41a1.88 1.88 0 0 0 1.07 1.69 1.84 1.84 0 0 0 1.97-.36c.17-.16.3-.35.4-.58.09-.22.13-.47.12-.75 0-.26-.04-.5-.12-.71a1.7 1.7 0 0 0-1.67-1.13c-.25 0-.48.05-.7.15a1.84 1.84 0 0 0-1.07 1.69Zm8.75-.48v-.13c0-.82-.4-1.23-1.21-1.23-.56 0-1.04.19-1.45.56l-.4-.48c.44-.46 1.1-.7 2-.7.23 0 .45.04.66.1a1.49 1.49 0 0 1 .93.85c.1.2.14.46.14.75v2.14a7.29 7.29 0 0 0 .08 1.07h-.65a3.92 3.92 0 0 1-.06-.78h-.02c-.2.32-.42.55-.7.7-.26.13-.59.2-.97.2-.21 0-.41-.03-.6-.09a1.55 1.55 0 0 1-.53-.26 1.28 1.28 0 0 1-.5-1.05c0-.39.1-.7.3-.91.2-.23.46-.4.75-.5.3-.1.62-.17.96-.2.34-.03.65-.04.94-.04h.33Zm-.34.55c-.17 0-.38 0-.64.02-.24.02-.49.06-.73.13a1.6 1.6 0 0 0-.6.3.69.69 0 0 0-.24.56c0 .16.03.29.1.4.06.12.14.2.25.28.11.07.23.12.36.15a1.8 1.8 0 0 0 1.04-.08 1.29 1.29 0 0 0 .72-.82c.05-.18.08-.38.08-.6v-.34h-.34Zm3.38 2.38h-.67v-7.72h.67v7.72Zm8.07-6.04c-.32-.47-.78-.7-1.39-.7-.19 0-.37.02-.55.08-.18.04-.35.12-.5.23a1.17 1.17 0 0 0-.48 1c0 .32.1.58.28.76.18.18.4.33.67.44.28.12.57.22.9.31.31.1.6.22.88.37.27.15.5.35.68.6.18.26.27.6.27 1.04 0 .32-.07.62-.2.88-.14.26-.33.48-.55.66a2.57 2.57 0 0 1-1.61.55c-.44 0-.86-.08-1.25-.25-.4-.17-.76-.46-1.01-.82l.67-.48c.15.27.37.48.64.64a1.92 1.92 0 0 0 2.02-.1c.15-.12.27-.26.36-.42.1-.16.14-.35.14-.56a1.17 1.17 0 0 0-.57-1.05 2.6 2.6 0 0 0-.59-.28l-.68-.22a7.26 7.26 0 0 1-.68-.26c-.21-.09-.4-.21-.59-.36a1.62 1.62 0 0 1-.41-.55c-.1-.22-.16-.5-.16-.83a1.89 1.89 0 0 1 .73-1.55c.22-.18.46-.3.74-.38a3.03 3.03 0 0 1 1.96.07c.33.13.64.36.92.68l-.64.5Zm6.8 3.65c0 .36-.07.7-.2 1a2.41 2.41 0 0 1-1.31 1.32c-.31.13-.65.2-1.02.2s-.7-.07-1.01-.2a2.38 2.38 0 0 1-1.32-1.32c-.12-.32-.19-.66-.18-1a2.6 2.6 0 0 1 .7-1.8c.23-.22.5-.4.8-.52a2.7 2.7 0 0 1 2.03 0 2.42 2.42 0 0 1 1.5 2.32Zm-.74 0c0-.26-.04-.5-.12-.75a1.7 1.7 0 0 0-1.67-1.15c-.28 0-.53.05-.75.15a1.67 1.67 0 0 0-.9 1 2.17 2.17 0 0 0 .35 2.1c.15.17.33.3.55.4.22.1.47.15.75.15s.52-.05.74-.15c.22-.1.41-.23.57-.4.15-.17.27-.38.36-.6.08-.24.12-.49.12-.75Zm2.77 2.39h-.67v-7.72h.67v7.72Zm5.04 0a5.03 5.03 0 0 1-.03-.77h-.02a1.82 1.82 0 0 1-.67.64 2.12 2.12 0 0 1-.92.25c-.61 0-1.06-.16-1.35-.48-.3-.33-.44-.79-.44-1.39v-3.03h.67v2.64c0 .27.02.5.06.7.04.21.11.38.21.52.1.14.23.25.4.32a1.58 1.58 0 0 0 .9.07c.18-.04.35-.12.5-.23.16-.12.32-.3.45-.55.14-.24.2-.58.2-1.02v-2.45h.68v3.73c0 .35.02.7.05 1.05h-.7Zm4.66-4.17h-1.37v2.82c0 .18.02.32.05.43.04.12.08.2.14.26.06.06.14.1.22.13.09.03.18.04.28.04.12 0 .23-.02.36-.05.12-.04.23-.08.33-.14l.03.63c-.4.17-.87.22-1.3.12a.93.93 0 0 1-.38-.2.967.967 0 0 1-.28-.38 1.56 1.56 0 0 1-.12-.65v-3h-1v-.62h1V35.4h.67v1.35h1.37v.61Zm1.89-2.45c0 .14-.05.26-.16.35a.49.49 0 0 1-.33.14.49.49 0 0 1-.34-.14.44.44 0 0 1-.11-.16.44.44 0 0 1-.04-.19c0-.14.05-.26.16-.35a.49.49 0 0 1 .33-.14c.12 0 .23.05.33.14.1.1.16.2.16.35Zm-.16 6.62h-.67v-4.78h.67v4.78Zm6.41-2.4a2.46 2.46 0 0 1-.7 1.8c-.24.23-.5.41-.8.53-.33.13-.68.2-1.03.2-.36 0-.7-.07-1-.2a2.38 2.38 0 0 1-1.32-1.32c-.13-.32-.2-.66-.19-1a2.6 2.6 0 0 1 .71-1.8c.22-.22.49-.4.8-.52a2.69 2.69 0 0 1 2.03 0 2.42 2.42 0 0 1 1.5 2.32Zm-.73 0c0-.25-.04-.5-.13-.74a1.7 1.7 0 0 0-1.67-1.15 1.68 1.68 0 0 0-1.66 1.15c-.08.23-.12.48-.12.75 0 .26.04.51.13.74.08.23.2.44.35.6.16.18.34.31.56.4.22.1.47.16.75.16.27 0 .52-.05.74-.15.22-.1.4-.23.56-.4.16-.17.28-.38.36-.6.09-.24.13-.49.13-.75Zm2.58-2.38a5.06 5.06 0 0 1 .04.77h.02c.07-.13.16-.25.28-.36a2.03 2.03 0 0 1 1.3-.53c.62 0 1.06.16 1.36.48.29.33.43.79.43 1.39v3.03h-.67v-2.65c0-.53-.09-.93-.27-1.22-.19-.28-.52-.42-1.02-.42-.1 0-.19.02-.28.04-.18.04-.35.11-.5.22-.18.15-.34.34-.45.56-.14.24-.2.58-.2 1.02v2.45h-.67V37.8l-.05-1.05h.68Zm-68.59 1.97H0v-1.35h42.98v1.35Z"/></svg>