<svg xmlns="http://www.w3.org/2000/svg" fill="none" viewBox="0 0 64 64"><path fill="#3172B9" d="M63.81 15.07 53.33 48.15l.25.78a3.97 3.97 0 0 1-2.01 4.77v.04l-2.38 7.47a4 4 0 0 1-5.02 2.6L32 59.96 19.83 63.8a4 4 0 0 1-5.02-2.6L.19 15.07a3.97 3.97 0 0 1 2.6-5.02L33.94.2a4 4 0 0 1 5.02 2.6l.08.24.03.01 22.14 7.01a3.97 3.97 0 0 1 2.6 5.02ZM48.44 54.75l-12.02 3.8 8.56 2.72a1.33 1.33 0 0 0 1.67-.87l1.8-5.65Zm2.6-5.02L36.42 3.6a1.33 1.33 0 0 0-1.67-.87L3.6 12.6a1.32 1.32 0 0 0-.93 1.15c-.01.18 0 .35.06.52L17.35 60.4c.22.7.97 1.1 1.67.87l12.54-3.97a.84.84 0 0 1 .09-.03l18.52-5.87a1.32 1.32 0 0 0 .87-1.67ZM48.5 32.9l4.95-15.63-11-3.48 6.05 19.1Zm12.68-19.64a1.32 1.32 0 0 0-.78-.66L40.02 6.14l1.45 4.56c.09.01.18.03.26.06l12.52 3.96a2.65 2.65 0 0 1 1.74 3.35l-6.1 19.23 2.04 6.43 9.34-29.46c.1-.34.07-.7-.09-1.02ZM30.94 23.34a4.9 4.9 0 0 1 2.6 4.88 4.6 4.6 0 0 1-.69 1.89l-3.2 5.02a2.76 2.76 0 0 1-3.37 1.06l-5.51-2.25a4.6 4.6 0 0 1-2.66-2.88 4.9 4.9 0 0 1 3.2-6.19 4.95 4.95 0 0 1 3.27.1 4.95 4.95 0 0 1 6.36-1.63Zm-.11 3.68a2.25 2.25 0 0 0-2.84-1.46 2.24 2.24 0 0 0-1.51 1.63 1.34 1.34 0 0 1-2.18.68 2.25 2.25 0 0 0-3.5.66 2.24 2.24 0 0 0-.15 1.72c.18.55.59 1 1.13 1.22l5.51 2.25h.06c.02 0 .04-.01.05-.03l3.2-5.02c.32-.5.4-1.09.23-1.64Zm13.34 13.91a2.65 2.65 0 0 1-1.73 3.35l-21.2 6.71a2.67 2.67 0 0 1-3.35-1.73L8.01 18.07a2.65 2.65 0 0 1 1.74-3.35l21.2-6.71a2.67 2.67 0 0 1 3.34 1.74l9.88 31.18Zm-2.54.8-9.88-31.18-9.77 3.1-11.43 3.61 9.88 31.19 21.2-6.71Z"/></svg>