<svg xmlns="http://www.w3.org/2000/svg" fill="none" viewBox="0 0 14 17"><path fill="#787878" d="M7.19 16.97a.57.57 0 0 1-.38 0C-.17 14.5-.06 8.65 0 4.37c.02-.45.02-.89.02-1.3a.59.59 0 0 1 .59-.6c2.5 0 4.39-.73 5.97-2.3a.57.57 0 0 1 .82 0 7.96 7.96 0 0 0 5.97 2.3.59.59 0 0 1 .59.6l.01 1.3c.08 4.28.2 10.13-6.79 12.6ZM12.82 4.4l-.02-.75A8.9 8.9 0 0 1 7 1.4a8.9 8.9 0 0 1-5.8 2.25l-.02.75C1.1 8.7 1.01 13.55 7 15.77c5.99-2.22 5.9-7.08 5.82-11.37ZM9.83 6.43a.6.6 0 0 1 0 .85l-3.22 3.29a.57.57 0 0 1-.83 0L4.17 8.92a.6.6 0 0 1 .19-.97.57.57 0 0 1 .63.13L6.2 9.3l2.82-2.87a.57.57 0 0 1 .82 0Z"/></svg>