<svg width="75" height="72" viewBox="0 0 75 72" fill="none" xmlns="http://www.w3.org/2000/svg">
<path d="M29.7 65H45.7V41.2H29.7C29.7 41.2 29.7 65 29.7 65ZM32.6 44.0999H42.7V62.0999H32.6V44.0999Z" fill="#81B3D2"/>
<path d="M72.8 39.3L74.9 37.2L65 27.3V0H51.1V13.6L37.5 0L0.199997 37.2L2.3 39.3L10.1 31.5V69.1H6.1V72H70V69.1H64.9V31.5L72.8 39.3ZM62 69.1H13V28.5L37.5 4.1L62 28.5V69.1ZM62 24.4L54.1 16.5V2.9H62V24.4Z" fill="#81B3D2"/>
<path d="M29.9 27.1C29.9 31.4 33.4 34.8 37.6 34.8C41.9 34.8 45.4 31.3 45.4 27.1C45.4 22.8 41.9 19.4 37.6 19.4C33.4 19.4 29.9 22.8 29.9 27.1ZM37.7 22.1C40.4 22.1 42.7 24.3 42.7 27C42.7 29.7 40.5 31.9 37.7 31.9C35 31.9 32.7 29.7 32.7 27C32.7 24.3 34.9 22.1 37.7 22.1Z" fill="#81B3D2"/>
<path d="M20.1 41.2H17.1V45.0999H20.1V41.2Z" fill="#81B3D2"/>
<path d="M26 41.2H23V45.0999H26V41.2Z" fill="#81B3D2"/>
<path d="M20.1 47.2H17.1V51.0999H20.1V47.2Z" fill="#81B3D2"/>
<path d="M26 47.2H23V51.0999H26V47.2Z" fill="#81B3D2"/>
<path d="M52 41.2H49V45.0999H52V41.2Z" fill="#81B3D2"/>
<path d="M57.9 41.2H54.9V45.0999H57.9V41.2Z" fill="#81B3D2"/>
<path d="M52 47.2H49V51.0999H52V47.2Z" fill="#81B3D2"/>
<path d="M57.9 47.2H54.9V51.0999H57.9V47.2Z" fill="#81B3D2"/>
</svg>
